<svg width="70.76474609375px" height="36.8px" xmlns="http://www.w3.org/2000/svg" viewBox="214.617626953125 56.6 70.76474609375 36.8" style="background: none;" preserveAspectRatio="xMidYMid"><defs><filter id="editing-hole" x="-100%" y="-100%" width="300%" height="300%"><feFlood flood-color="#000000" result="black"></feFlood><feMorphology operator="dilate" radius="2" in="SourceGraphic" result="erode"></feMorphology><feGaussianBlur in="erode" stdDeviation="4" result="blur"></feGaussianBlur><feOffset in="blur" dx="2" dy="2" result="offset"></feOffset><feComposite operator="atop" in="offset" in2="black" result="merge"></feComposite><feComposite operator="in" in="merge" in2="SourceGraphic" result="inner-shadow"></feComposite></filter></defs><g filter="url(#editing-hole)"><g transform="translate(231.73385083675385, 78.50000286102295)"><path d="M7.60-7.00L7.60-0.64L7.60-0.64Q7.60-0.50 7.55-0.39L7.55-0.39L7.55-0.39Q7.50-0.27 7.41-0.18L7.41-0.18L7.41-0.18Q7.32-0.10 7.21-0.05L7.21-0.05L7.21-0.05Q7.09 0 6.96 0L6.96 0L4.10 0L4.10 0Q3.69 0 3.28-0.09L3.28-0.09L3.28-0.09Q2.86-0.18 2.47-0.36L2.47-0.36L2.47-0.36Q2.08-0.54 1.74-0.83L1.74-0.83L1.74-0.83Q1.40-1.11 1.15-1.50L1.15-1.50L1.15-1.50Q0.89-1.88 0.74-2.39L0.74-2.39L0.74-2.39Q0.60-2.89 0.60-3.50L0.60-3.50L0.60-7.00L1.87-7.00L1.87-3.50L1.87-3.50Q1.87-2.96 2.01-2.59L2.01-2.59L2.01-2.59Q2.16-2.22 2.39-1.97L2.39-1.97L2.39-1.97Q2.62-1.72 2.90-1.58L2.90-1.58L2.90-1.58Q3.17-1.44 3.42-1.37L3.42-1.37L3.42-1.37Q3.66-1.30 3.85-1.29L3.85-1.29L3.85-1.29Q4.04-1.27 4.10-1.27L4.10-1.27L6.33-1.27L6.33-7.00L7.60-7.00ZM9.99-0.64L9.99-0.64L9.99-0.64Q9.99-0.51 9.94-0.39L9.94-0.39L9.94-0.39Q9.89-0.28 9.80-0.19L9.80-0.19L9.80-0.19Q9.72-0.11 9.60-0.06L9.60-0.06L9.60-0.06Q9.49-0.01 9.36-0.01L9.36-0.01L9.36-0.01Q9.23-0.01 9.11-0.06L9.11-0.06L9.11-0.06Q9.00-0.11 8.91-0.19L8.91-0.19L8.91-0.19Q8.83-0.28 8.78-0.39L8.78-0.39L8.78-0.39Q8.73-0.51 8.73-0.64L8.73-0.64L8.73-0.64Q8.73-0.77 8.78-0.88L8.78-0.88L8.78-0.88Q8.83-1.00 8.91-1.08L8.91-1.08L8.91-1.08Q9.00-1.17 9.11-1.22L9.11-1.22L9.11-1.22Q9.23-1.27 9.36-1.27L9.36-1.27L9.36-1.27Q9.49-1.27 9.60-1.22L9.60-1.22L9.60-1.22Q9.72-1.17 9.80-1.08L9.80-1.08L9.80-1.08Q9.89-1.00 9.94-0.88L9.94-0.88L9.94-0.88Q9.99-0.77 9.99-0.64ZM17.99-6.36L17.99 0L16.72 0L16.72-1.72L12.26-1.72L12.26 0L10.99 0L10.99-3.50L10.99-3.50Q10.99-4.27 11.25-4.91L11.25-4.91L11.25-4.91Q11.52-5.56 11.99-6.02L11.99-6.02L11.99-6.02Q12.46-6.48 13.10-6.74L13.10-6.74L13.10-6.74Q13.74-7.00 14.49-7.00L14.49-7.00L17.35-7.00L17.35-7.00Q17.49-7.00 17.60-6.95L17.60-6.95L17.60-6.95Q17.72-6.90 17.81-6.82L17.81-6.82L17.81-6.82Q17.90-6.73 17.94-6.61L17.94-6.61L17.94-6.61Q17.99-6.49 17.99-6.36L17.99-6.36ZM12.26-3.50L12.26-2.99L16.72-2.99L16.72-5.73L14.49-5.73L14.49-5.73Q14.43-5.73 14.25-5.72L14.25-5.72L14.25-5.72Q14.06-5.70 13.81-5.63L13.81-5.63L13.81-5.63Q13.56-5.56 13.29-5.42L13.29-5.42L13.29-5.42Q13.02-5.28 12.79-5.03L12.79-5.03L12.79-5.03Q12.56-4.78 12.41-4.41L12.41-4.41L12.41-4.41Q12.26-4.03 12.26-3.50L12.26-3.50ZM20.39-0.64L20.39-0.64L20.39-0.64Q20.39-0.51 20.33-0.39L20.33-0.39L20.33-0.39Q20.28-0.28 20.20-0.19L20.20-0.19L20.20-0.19Q20.11-0.11 20.00-0.06L20.00-0.06L20.00-0.06Q19.88-0.01 19.76-0.01L19.76-0.01L19.76-0.01Q19.62-0.01 19.51-0.06L19.51-0.06L19.51-0.06Q19.39-0.11 19.31-0.19L19.31-0.19L19.31-0.19Q19.22-0.28 19.17-0.39L19.17-0.39L19.17-0.39Q19.13-0.51 19.13-0.64L19.13-0.64L19.13-0.64Q19.13-0.77 19.17-0.88L19.17-0.88L19.17-0.88Q19.22-1.00 19.31-1.08L19.31-1.08L19.31-1.08Q19.39-1.17 19.51-1.22L19.51-1.22L19.51-1.22Q19.62-1.27 19.76-1.27L19.76-1.27L19.76-1.27Q19.88-1.27 20.00-1.22L20.00-1.22L20.00-1.22Q20.11-1.17 20.20-1.08L20.20-1.08L20.20-1.08Q20.28-1.00 20.33-0.88L20.33-0.88L20.33-0.88Q20.39-0.77 20.39-0.64ZM27.50-7.00L27.50-5.73L24.70-5.73L24.70 0L23.43 0L23.43-5.73L20.63-5.73L20.63-7.00L27.50-7.00ZM29.00-0.64L29.00-0.64L29.00-0.64Q29.00-0.51 28.95-0.39L28.95-0.39L28.95-0.39Q28.90-0.28 28.82-0.19L28.82-0.19L28.82-0.19Q28.73-0.11 28.62-0.06L28.62-0.06L28.62-0.06Q28.50-0.01 28.37-0.01L28.37-0.01L28.37-0.01Q28.24-0.01 28.13-0.06L28.13-0.06L28.13-0.06Q28.01-0.11 27.93-0.19L27.93-0.19L27.93-0.19Q27.84-0.28 27.79-0.39L27.79-0.39L27.79-0.39Q27.74-0.51 27.74-0.64L27.74-0.64L27.74-0.64Q27.74-0.77 27.79-0.88L27.79-0.88L27.79-0.88Q27.84-1.00 27.93-1.08L27.93-1.08L27.93-1.08Q28.01-1.17 28.13-1.22L28.13-1.22L28.13-1.22Q28.24-1.27 28.37-1.27L28.37-1.27L28.37-1.27Q28.50-1.27 28.62-1.22L28.62-1.22L28.62-1.22Q28.73-1.17 28.82-1.08L28.82-1.08L28.82-1.08Q28.90-1.00 28.95-0.88L28.95-0.88L28.95-0.88Q29.00-0.77 29.00-0.64ZM35.93-4.14L35.93-2.86L31.91-2.86L31.91-4.14L35.93-4.14ZM36.49-7.00L36.49-5.73L31.41-5.73L31.41 0L30.14 0L30.14-6.36L30.14-6.36Q30.14-6.49 30.19-6.61L30.19-6.61L30.19-6.61Q30.23-6.73 30.32-6.82L30.32-6.82L30.32-6.82Q30.41-6.90 30.52-6.95L30.52-6.95L30.52-6.95Q30.64-7.00 30.78-7.00L30.78-7.00L36.49-7.00Z" fill="rgba(56.07843137254902%,56.07843137254902%,56.07843137254902%,0.113)"></path></g></g><style>text {
  font-size: 64px;
  font-family: Arial Black;
  dominant-baseline: central;
  text-anchor: middle;
}</style></svg>